# xmcd
#
# Track frame offsets:
#	150
#	12177
#	32606
#	46848
#	68065
#	82342
#	95462
#	117821
#	131306
#	148013
#	159245
#
# Disc length: 2318 seconds
#
# Revision: 0
# Processed by: cddbd v1.5.1PL2 Copyright (c) Steve Scherf et al.
# Submitted via: audiograbber 1.83.01
#
DISCID=85090c0b
DTITLE=The Legendary Blues Band - Life of ease
DYEAR=1900
DGENRE=Blues
TTITLE0=Life of ease
TTITLE1=Pay back
TTITLE2=For you my love
TTITLE3=Eye to eye
TTITLE4=Lucille
TTITLE5=Think like a million
TTITLE6=Woke up with the blues
TTITLE7=Hush hush
TTITLE8=Love you to the bone
TTITLE9=Snakeskin strut
TTITLE10=How long, how long
EXTD=
EXTT0=
EXTT1=
EXTT2=
EXTT3=
EXTT4=
EXTT5=
EXTT6=
EXTT7=
EXTT8=
EXTT9=
EXTT10=
PLAYORDER=
